<svg preserveAspectRatio="none" width="100%" height="100%" overflow="visible" style="display: block;" viewBox="0 0 35.2489 38.25" fill="none" xmlns="http://www.w3.org/2000/svg">
<g id="Group">
<path id="Vector" d="M24.012 17.826H9.81601C4.40401 17.826 9.15527e-06 22.23 9.15527e-06 27.642V33.192C9.15527e-06 35.544 1.91401 37.458 4.26601 37.458H17.778C18.69 37.458 19.434 36.714 19.434 35.802C19.434 34.89 18.69 34.146 17.778 34.146H4.26601C3.73801 34.146 3.312 33.72 3.312 33.192V27.642C3.312 24.06 6.228 21.144 9.81 21.144H24.006C24.918 21.144 25.662 20.4 25.662 19.488C25.662 18.576 24.918 17.832 24.006 17.832L24.012 17.826Z" fill="var(--fill-0, white)"/>
<path id="Vector_2" d="M35.184 28.0919C34.986 27.4859 34.452 27.0719 33.816 27.0359L29.706 26.7839L28.218 22.9739C27.984 22.3799 27.426 21.9959 26.79 21.9959C26.154 21.9959 25.596 22.3739 25.362 22.9679L23.85 26.8019L19.77 27.0359C19.134 27.0719 18.6 27.4859 18.402 28.0919C18.204 28.6979 18.396 29.3459 18.882 29.7539L22.062 32.3759L21.024 36.3299C20.862 36.9419 21.09 37.5839 21.606 37.9559C21.876 38.1539 22.194 38.2499 22.506 38.2499C22.794 38.2499 23.076 38.1719 23.328 38.0099L26.802 35.7959L30.24 38.0039C30.762 38.3399 31.47 38.3219 31.968 37.9559C32.484 37.5839 32.712 36.9419 32.55 36.3299L31.518 32.3399L34.686 29.7479C35.178 29.3459 35.37 28.6919 35.172 28.0919H35.184Z" fill="var(--fill-0, white)"/>
<path id="Vector_3" d="M16.914 0C12.534 0 8.97002 3.564 8.97002 7.944C8.97002 12.324 12.534 15.888 16.914 15.888C21.294 15.888 24.858 12.324 24.858 7.944C24.858 3.564 21.294 0 16.914 0ZM16.914 13.218C14.004 13.218 11.64 10.854 11.64 7.944C11.64 5.034 14.004 2.67 16.914 2.67C19.824 2.67 22.188 5.034 22.188 7.944C22.188 10.854 19.824 13.218 16.914 13.218Z" fill="var(--fill-0, white)"/>
</g>
</svg>
