<svg preserveAspectRatio="none" width="100%" height="100%" overflow="visible" style="display: block;" viewBox="0 0 39.9492 13.2642" fill="none" xmlns="http://www.w3.org/2000/svg">
<g id="Logo">
<g id="Vector">
</g>
<g id="Vector_2">
</g>
<g id="Vector_3">
</g>
<g id="Vector_4">
</g>
<g id="Vector_5">
</g>
<path id="Vector_6" d="M0.00029522 12.9393C0.0904654 8.73653 0.0904654 4.04768 0.00029522 0.0435722H2.41704C2.39919 1.7211 2.36303 3.48835 2.30902 5.20158H2.32687C2.85004 4.20971 3.73343 3.65038 4.74362 3.65038H4.79763C6.67335 3.65038 7.73754 5.41808 7.73754 8.55619C7.73754 11.6943 6.70951 13.2093 4.79763 13.2093H4.77977C3.71558 13.2093 2.85004 12.6862 2.25501 11.6943H2.23716C2.27332 12.109 2.29117 12.5241 2.30948 12.9388H0.00029522V12.9393ZM3.67942 11.2796C4.76147 11.2796 5.35696 10.2694 5.35696 8.50218V8.32184C5.35696 6.60861 4.77977 5.56226 3.80575 5.56226C3.28258 5.56226 2.79557 5.88679 2.39919 6.50013C2.38134 7.58217 2.38134 9.58422 2.38134 10.6123C2.77818 11.081 3.15671 11.2796 3.67988 11.2796H3.67942Z" fill="var(--fill-0, white)"/>
<path id="Vector_7" d="M12.0124 3.7052H12.2467C14.6996 3.7052 15.9803 5.34657 15.9803 8.44852C15.9803 11.5505 14.6818 13.2642 12.2467 13.2642H12.0124C9.59561 13.2642 8.31492 11.5509 8.31492 8.43067C8.31492 5.31041 9.59561 3.7052 12.0124 3.7052ZM13.6537 8.48468V8.43067C13.6537 6.44692 13.1667 5.61708 12.157 5.61708C11.1473 5.61708 10.6598 6.44692 10.6598 8.43067V8.48468C10.6598 10.5229 11.1468 11.3344 12.1748 11.3344C13.2029 11.3344 13.6537 10.5591 13.6537 8.48468Z" fill="var(--fill-0, white)"/>
<path id="Vector_8" d="M20.254 3.65081H20.4883C22.9413 3.65081 24.2219 5.29218 24.2219 8.39413C24.2219 11.4961 22.9234 13.2098 20.4883 13.2098H20.254C17.8373 13.2098 16.5566 11.4965 16.5566 8.37628C16.5566 5.25602 17.8373 3.65081 20.254 3.65081ZM21.8949 8.43029V8.37628C21.8949 6.39253 21.4079 5.56269 20.3982 5.56269C19.3885 5.56269 18.9014 6.39253 18.9014 8.37628V8.43029C18.9014 10.4685 19.3885 11.28 20.4165 11.28C21.4445 11.28 21.8954 10.5047 21.8954 8.43029H21.8949Z" fill="var(--fill-0, white)"/>
<path id="Vector_9" d="M24.8001 12.9394C24.8724 8.73708 24.8724 4.04777 24.8001 0.0436615H27.2169C27.1807 2.35239 27.1445 4.49862 27.1628 7.0417H27.5418C28.6779 7.0417 29.1287 6.30202 29.1287 4.08393V3.92144H31.2388V4.08393C31.2388 6.39265 30.5898 7.63719 29.3269 7.83538L29.2189 7.85323V7.96125C29.2912 9.9633 29.9041 10.919 30.9321 10.919C31.2027 10.919 31.491 10.865 31.6714 10.811C31.6714 11.5685 31.6892 12.2899 31.7437 13.0295C31.4549 13.1376 31.0402 13.2099 30.6433 13.2099C28.8756 13.2099 27.9561 11.785 27.7396 8.66476H27.1802C27.1802 9.94545 27.1802 11.7127 27.2164 12.9394H24.7997H24.8001Z" fill="var(--fill-0, white)"/>
<path id="Vector_10" d="M32.4638 12.939C32.5179 10.0714 32.5179 6.66279 32.4638 3.92107H34.8806C34.8083 6.66234 34.8083 10.0714 34.8806 12.939H32.4638Z" fill="var(--fill-0, white)"/>
<path id="Vector_11" d="M36.2701 12.9394C36.3424 10.7753 36.3602 7.94338 36.3602 5.76098H35.6206C35.5844 5.11194 35.5483 4.64278 35.5126 3.93927H36.3602C36.3424 3.05542 36.3241 2.18988 36.3241 1.32388H38.723C38.7051 2.11756 38.6868 3.00141 38.669 3.93927H39.9314C39.9314 4.35396 39.9314 5.12979 39.9492 5.76098H38.6685C38.6507 8.15988 38.6507 11.1538 38.7225 12.9394H36.2696H36.2701Z" fill="var(--fill-0, white)"/>
<path id="Vector_12" d="M32.5457 1.44318C32.5457 2.54353 32.7622 2.77788 33.6639 2.77788H33.6644C34.5839 2.77788 34.8004 2.54353 34.8004 1.44318V1.37086C34.8004 0.234351 34.5482 0 33.6461 0C32.7439 0 32.5457 0.25266 32.5457 1.37086V1.44318Z" fill="var(--fill-0, white)"/>
</g>
</svg>
