<svg width="124" height="54.2754" viewBox="0 0 124 54.2754" fill="none" xmlns="http://www.w3.org/2000/svg">
	<!-- White background with rounded corners and padding -->
	<rect width="124" height="54.2754" rx="10" ry="10" fill="white"></rect>

	<!-- Logo content shifted by 10px padding -->
	<g clip-path="url(#clip0_79_4725)" transform="translate(10, 10)">
		<path
			d="M0 33.5712C0.234739 22.6302 0.234739 10.4238 0 0H6.29148C6.24501 4.36709 6.15087 8.96774 6.01027 13.4278H6.05674C7.4187 10.8456 9.71842 9.38955 12.3482 9.38955H12.4888C17.3719 9.38955 20.1423 13.9914 20.1423 22.1608C20.1423 30.3302 17.466 34.2742 12.4888 34.2742H12.4423C9.67195 34.2742 7.4187 32.9123 5.86966 30.3302H5.82319C5.91732 31.4097 5.9638 32.4905 6.01146 33.57H0V33.5712ZM9.57782 29.2506C12.3947 29.2506 13.9449 26.6208 13.9449 22.0202V21.5507C13.9449 17.0907 12.4423 14.3667 9.90669 14.3667C8.54473 14.3667 7.2769 15.2115 6.24501 16.8083C6.19853 19.6251 6.19853 24.837 6.19853 27.5133C7.23162 28.7335 8.21705 29.2506 9.57901 29.2506H9.57782Z"
			fill="black"></path>
		<path
			d="M31.2705 9.39062H31.8806C38.2662 9.39062 41.6002 13.6636 41.6002 21.7388C41.6002 29.8141 38.2197 34.2753 31.8806 34.2753H31.2705C24.979 34.2753 21.645 29.8153 21.645 21.6924C21.645 13.5695 24.979 9.39062 31.2705 9.39062ZM35.5435 21.833V21.6924C35.5435 16.5281 34.2756 14.3678 31.647 14.3678C29.0184 14.3678 27.7494 16.5281 27.7494 21.6924V21.833C27.7494 27.139 29.0172 29.2517 31.6935 29.2517C34.3698 29.2517 35.5435 27.2332 35.5435 21.833Z"
			fill="black"></path>
		<path
			d="M52.728 9.39062H53.3381C59.7237 9.39062 63.0577 13.6636 63.0577 21.7388C63.0577 29.8141 59.6772 34.2753 53.3381 34.2753H52.728C46.4365 34.2753 43.1025 29.8153 43.1025 21.6924C43.1025 13.5695 46.4365 9.39062 52.728 9.39062ZM56.9998 21.833V21.6924C56.9998 16.5281 55.732 14.3678 53.1034 14.3678C50.4748 14.3678 49.2069 16.5281 49.2069 21.6924V21.833C49.2069 27.139 50.4748 29.2517 53.151 29.2517C55.8273 29.2517 57.001 27.2332 57.001 21.833H56.9998Z"
			fill="black"></path>
		<path
			d="M64.5603 33.5712C64.7485 22.6314 64.7485 10.4238 64.5603 0H70.8517C70.7576 6.01027 70.6635 11.5975 70.7111 18.2179H71.6978C74.6552 18.2179 75.8289 16.2923 75.8289 10.518V10.095H81.3221V10.518C81.3221 16.5282 79.6324 19.7681 76.3449 20.2841L76.0637 20.3305V20.6117C76.2519 25.8236 77.8474 28.3116 80.5237 28.3116C81.2279 28.3116 81.9786 28.171 82.4481 28.0304C82.4481 30.0025 82.4946 31.8804 82.6364 33.806C81.8845 34.0872 80.8049 34.2754 79.7718 34.2754C75.17 34.2754 72.7761 30.5661 72.2125 22.4432H70.7564C70.7564 25.7772 70.7564 30.3778 70.8506 33.5712H64.5591H64.5603Z"
			fill="black"></path>
		<path
			d="M87.6373 7.58318C85.2899 7.58318 84.7263 6.9731 84.7263 4.10857V3.92031C84.7263 1.00931 85.2422 0.351562 87.5908 0.351562C89.9394 0.351562 90.5959 0.961645 90.5959 3.92031V4.10857C90.5959 6.9731 90.0323 7.58318 87.6384 7.58318H87.6373ZM84.5142 33.5713C84.6548 26.1061 84.6548 17.2325 84.5142 10.095H90.8056C90.6174 17.2313 90.6174 26.1061 90.8056 33.5713H84.5142Z"
			fill="black"></path>
		<path
			d="M94.4222 33.5714C94.6105 27.9377 94.657 20.5655 94.657 14.8841H92.7314C92.6373 13.1944 92.5431 11.9731 92.4502 10.1416H94.657C94.6105 7.84071 94.5628 5.58745 94.5628 3.33301H100.808C100.761 5.39919 100.714 7.7001 100.667 10.1416H103.954C103.954 11.2212 103.954 13.2409 104 14.8841H100.666C100.62 21.1291 100.62 28.9231 100.807 33.5714H94.421H94.4222Z"
			fill="black"></path>
	</g>
	<defs>
		<clipPath id="clip0_79_4725">
			<rect width="104" height="34.2754" fill="white"></rect>
		</clipPath>
	</defs>
</svg>
