<?xml version="1.0" encoding="UTF-8"?>
<svg id="Layer_1" xmlns="http://www.w3.org/2000/svg" version="1.1" viewBox="0 0 912.4 300">
  <!-- Generator: Adobe Illustrator 29.5.1, SVG Export Plug-In . SVG Version: 2.1.0 Build 141)  -->
  <defs>
    <style>
      .st0 {
        fill: none;
      }
    </style>
  </defs>
  <path class="st0" d="M19.8,287.91c1.97-91.81,1.97-194.26,0-281.74h52.8c-.39,36.65-1.18,75.26-2.36,112.69h.39c11.43-21.67,30.73-33.89,52.8-33.89h1.18c40.98,0,64.23,38.62,64.23,107.18s-22.46,101.66-64.23,101.66h-.39c-23.25,0-42.16-11.43-55.16-33.1h-.39c.79,9.06,1.18,18.13,1.58,27.19H19.8ZM100.18,251.66c23.64,0,36.65-22.07,36.65-60.68v-3.94c0-37.43-12.61-60.29-33.89-60.29-11.43,0-22.07,7.09-30.73,20.49-.39,23.64-.39,67.38-.39,89.84,8.67,10.24,16.94,14.58,28.37,14.58Z"/>
  <path class="st0" d="M282.23,84.98h5.12c53.59,0,81.57,35.86,81.57,103.63s-28.37,105.21-81.57,105.21h-5.12c-52.8,0-80.78-37.43-80.78-105.6s27.98-103.24,80.78-103.24ZM318.09,189.4v-1.18c0-43.34-10.64-61.47-32.7-61.47s-32.71,18.13-32.71,61.47v1.18c0,44.53,10.64,62.26,33.1,62.26s32.31-16.94,32.31-62.26Z"/>
  <path class="st0" d="M561.61,287.91c1.58-91.81,1.58-194.26,0-281.74h52.8c-.79,50.44-1.58,97.33-1.18,152.89h8.28c24.82,0,34.67-16.16,34.67-64.62v-3.55h46.1v3.55c0,50.44-14.18,77.63-41.77,81.96l-2.36.39v2.36c1.58,43.74,14.97,64.62,37.43,64.62,5.91,0,12.21-1.18,16.15-2.36,0,16.55.39,32.31,1.58,48.47-6.31,2.36-15.37,3.94-24.04,3.94-38.62,0-58.71-31.13-63.44-99.3h-12.22c0,27.98,0,66.59.79,93.39h-52.8Z"/>
  <path class="st0" d="M755.28,69.81c-19.7,0-24.43-5.12-24.43-29.16v-1.58c0-24.43,4.33-29.95,24.04-29.95s25.22,5.12,25.22,29.95v1.58c0,24.04-4.73,29.16-24.82,29.16ZM729.07,287.91c1.18-62.65,1.18-137.12,0-197.02h52.8c-1.58,59.89-1.58,134.37,0,197.02h-52.8Z"/>
  <path class="st0" d="M812.22,287.91c1.58-47.28,1.97-109.15,1.97-156.83h-16.16c-.79-14.18-1.58-24.43-2.36-39.8h18.52c-.39-19.31-.79-38.22-.79-57.14h52.41c-.39,17.34-.79,36.65-1.18,57.14h27.58c0,9.06,0,26.01.39,39.8h-27.98c-.39,52.41-.39,117.82,1.18,156.83h-53.59Z"/>
  <path d="M19.8,287.91c1.97-91.81,1.97-194.26,0-281.74h52.8c-.39,36.65-1.18,75.26-2.36,112.69h.39c11.43-21.67,30.73-33.89,52.8-33.89h1.18c40.98,0,64.23,38.62,64.23,107.18s-22.46,101.66-64.23,101.66h-.39c-23.25,0-42.16-11.43-55.16-33.1h-.39c.79,9.06,1.18,18.13,1.58,27.19H19.8ZM100.18,251.66c23.64,0,36.65-22.07,36.65-60.68v-3.94c0-37.43-12.61-60.29-33.89-60.29-11.43,0-22.07,7.09-30.73,20.49-.39,23.64-.39,67.38-.39,89.84,8.67,10.24,16.94,14.58,28.37,14.58Z"/>
  <path d="M282.23,84.98h5.12c53.59,0,81.57,35.86,81.57,103.63s-28.37,105.21-81.57,105.21h-5.12c-52.8,0-80.78-37.43-80.78-105.6s27.98-103.24,80.78-103.24ZM318.09,189.4v-1.18c0-43.34-10.64-61.47-32.7-61.47s-32.71,18.13-32.71,61.47v1.18c0,44.53,10.64,62.26,33.1,62.26s32.31-16.94,32.31-62.26Z"/>
  <path d="M462.31,84.98h5.12c53.59,0,81.57,35.86,81.57,103.63s-28.37,105.21-81.57,105.21h-5.12c-52.8,0-80.78-37.43-80.78-105.6s27.98-103.24,80.78-103.24ZM498.16,189.4v-1.18c0-43.34-10.64-61.47-32.7-61.47s-32.7,18.13-32.7,61.47v1.18c0,44.53,10.64,62.26,33.1,62.26s32.31-16.94,32.31-62.26Z"/>
  <path d="M561.61,287.91c1.58-91.81,1.58-194.26,0-281.74h52.8c-.79,50.44-1.58,97.33-1.18,152.89h8.28c24.82,0,34.67-16.16,34.67-64.62v-3.55h46.1v3.55c0,50.44-14.18,77.63-41.77,81.96l-2.36.39v2.36c1.58,43.74,14.97,64.62,37.43,64.62,5.91,0,12.21-1.18,16.15-2.36,0,16.55.39,32.31,1.58,48.47-6.31,2.36-15.37,3.94-24.04,3.94-38.62,0-58.71-31.13-63.44-99.3h-12.22c0,27.98,0,66.59.79,93.39h-52.8Z"/>
  <path d="M755.28,69.81c-19.7,0-24.43-5.12-24.43-29.16v-1.58c0-24.43,4.33-29.95,24.04-29.95s25.22,5.12,25.22,29.95v1.58c0,24.04-4.73,29.16-24.82,29.16ZM729.07,287.91c1.18-62.65,1.18-137.12,0-197.02h52.8c-1.58,59.89-1.58,134.37,0,197.02h-52.8Z"/>
  <path d="M812.22,287.91c1.58-47.28,1.97-109.15,1.97-156.83h-16.16c-.79-14.18-1.58-24.43-2.36-39.8h18.52c-.39-19.31-.79-38.22-.79-57.14h52.41c-.39,17.34-.79,36.65-1.18,57.14h27.58c0,9.06,0,26.01.39,39.8h-27.98c-.39,52.41-.39,117.82,1.18,156.83h-53.59Z"/>
</svg>