<?xml version="1.0" encoding="UTF-8"?>
<svg id="Layer_1" xmlns="http://www.w3.org/2000/svg" version="1.1" viewBox="0 0 700 300">
  <!-- Generator: Adobe Illustrator 29.5.1, SVG Export Plug-In . SVG Version: 2.1.0 Build 141)  -->
  <path d="M231.89,231.25c.96-60.72.96-132.9,0-190.95h42.81c-1.28,58.05-1.28,130.23,0,190.95h-42.81Z"/>
  <path d="M251.66,277.66c.63-8.26,3.6-13.21,9.03-13.98,1.96-.28,4.11-.18,5.48.02-.78-5.5-1.4-10.76-1.77-16.18-2.21-.49-5.29-.58-8.17-.17-11.71,1.67-17.05,11.26-16.64,30.31h-3.86v9.62h36.31v-9.62h-20.37Z"/>
  <path d="M696.54,272.26c0,15.97-4.15,19.81-23.64,19.81h-1.28c-19.81,0-24.28-3.51-24.28-19.49,0-16.61,4.15-20.45,24.28-20.45h1.28c19.49,0,23.64,3.83,23.64,20.13Z"/>
  <g>
    <path d="M130.54,78.86c-15.97,0-19.81-4.15-19.81-23.64v-1.28c0-19.81,3.51-24.28,19.49-24.28s20.45,4.15,20.45,24.28v1.28c0,19.49-3.83,23.64-20.13,23.64Z"/>
    <path d="M130.54,141.88c16.29,0,20.13-4.15,20.13-23.64v-1.28c0-20.13-3.83-24.28-20.45-24.28s-19.49,4.47-19.49,24.28v1.28c0,19.49,3.83,23.64,19.81,23.64Z"/>
  </g>
  <path d="M696.8,231.13c-.61-36.86-1.38-100.73-1.04-126.49h-40.82c.72,30.89.77,60.73.16,89.98h-44.37v-89.98h-42.31v.3h-20.96c-17.33,0-31.06,5.42-40.83,16.12-9.86,10.8-14.86,27.48-14.86,49.57,0,8.84,1.47,17.91,4.36,26.96,2.83,8.87,7.61,16.86,14.22,23.75,6.34,6.61,13.42,9.83,21.66,9.83h36.75l-4.4,6.28c-4.69,6.7-12.6,12.18-23.53,16.29-8.75,3.29-17.89,5.18-27.18,5.62l14.74,36.46,3.81.18c23.49,1.16,42.38-3.9,56.07-15.02,13.57-11.02,21.03-26.52,22.17-46.06l.22-3.76h82.06l-.05-.05h4.15ZM568.41,194.62h-3.99c-15.61,0-25.83-2.06-31.24-6.3-5.64-4.41-8.5-11.07-8.5-19.81s2.94-15.1,8.73-19.41c5.51-4.1,15.65-6.09,31.02-6.09h3.99v51.61Z"/>
  <path d="M322.46,231.17h153.07l.28-36.55h-.1c.11-9.72.4-18.33.1-27.37-1.01-30.6-20.07-49.65-59.8-58.45,41.41-24.3,55.27-50.79,44.17-82.27-3.07-8.69-7.85-17.23-12.45-22.71-15.78,6.9-26.66,12.87-43.25,18.72,2.58,3.53,7.52,13.63,8.08,20.16,2.03,23.8-17.89,46.78-61.19,63.83l-2.37.84v34.68h0s10.5-.08,10.5-.08c46.54.14,73.79,12.11,74.58,35.99.2,6.02-.74,12.43-1.81,16.68h-109.8v36.55Z"/>
  <path d="M216.65,231.25c-.43-33.57-.75-108.08-.51-126.49h-40.82c.72,30.85.76,60.65.16,89.86H40.53l-.44-3.49c-.43-3.4-.64-5.85-.64-7.47,0-28.18,14.29-42.47,42.47-42.47.84,0,1.63,0,2.37.03v-36.27h-2.37c-21.62,0-40.34,7.76-55.65,23.07-15.31,15.31-23.07,34.03-23.07,55.65,0,17.36,5.34,33.34,15.86,47.51,0,0,197.59.05,197.59.08Z"/>
</svg>