<svg preserveAspectRatio="none" width="100%" height="100%" overflow="visible" style="display: block;" viewBox="0 0 35.712 35.712" fill="none" xmlns="http://www.w3.org/2000/svg">
<g id="Group">
<path id="Vector" d="M29.831 5.93856L29.376 5.84064V1.728C29.376 0.7776 28.5984 0 27.648 0C26.6976 0 25.92 0.7776 25.92 1.728V5.76H19.584V1.728C19.584 0.7776 18.8064 0 17.856 0C16.9056 0 16.128 0.7776 16.128 1.728V5.76H9.792V1.728C9.792 0.7776 9.0144 0 8.064 0C7.1136 0 6.336 0.7776 6.336 1.728V5.84064L5.88096 5.93856C2.47104 6.68736 0 9.7632 0 13.248V28.224C0 32.3539 3.35808 35.712 7.488 35.712H28.224C32.3539 35.712 35.712 32.3539 35.712 28.224V13.248C35.712 9.75744 33.2352 6.68736 29.831 5.93856ZM32.256 28.224C32.256 30.4474 30.4474 32.256 28.224 32.256H7.488C5.26464 32.256 3.456 30.4474 3.456 28.224V13.248C3.456 11.0246 5.26464 9.216 7.488 9.216H28.224C30.4474 9.216 32.256 11.0246 32.256 13.248V28.224Z" fill="var(--fill-0, white)"/>
<path id="Vector_2" d="M23.616 14.976H12.096C11.1456 14.976 10.368 15.7536 10.368 16.704C10.368 17.6544 11.1456 18.432 12.096 18.432H23.616C24.5664 18.432 25.344 17.6544 25.344 16.704C25.344 15.7536 24.5664 14.976 23.616 14.976Z" fill="var(--fill-0, white)"/>
</g>
</svg>
