<svg preserveAspectRatio="none" width="100%" height="100%" overflow="visible" style="display: block;" viewBox="0 0 34.5899 36.0543" fill="none" xmlns="http://www.w3.org/2000/svg">
<g id="Group">
<path id="Vector" d="M17.305 27.4024C14.809 27.4444 12.409 26.4664 10.651 24.7024C8.89302 22.9324 7.92702 20.5264 7.98702 18.0304C8.05302 6.07236 25.945 5.12436 26.683 18.0304C26.683 20.5144 25.693 22.8964 23.935 24.6544C22.177 26.4124 19.795 27.4024 17.311 27.4024H17.305ZM17.305 10.9384C15.415 10.8904 13.591 11.6224 12.259 12.9664C10.927 14.3104 10.207 16.1404 10.267 18.0304C10.201 27.0184 23.893 27.8224 24.397 18.0304C24.397 16.1524 23.647 14.3464 22.315 13.0204C20.983 11.6884 19.183 10.9444 17.305 10.9384ZM20.551 17.4184L17.713 20.2564C17.269 20.6944 16.543 20.6944 16.099 20.2564L14.065 18.2224C13.633 17.7724 13.639 17.0644 14.083 16.6264C14.521 16.1884 15.235 16.1824 15.685 16.6084L16.915 17.8384L18.943 15.8104C19.393 15.3784 20.101 15.3844 20.539 15.8284C20.977 16.2664 20.983 16.9804 20.557 17.4244L20.551 17.4184Z" fill="var(--fill-0, white)"/>
<path id="Vector_2" d="M14.875 36.0543C13.069 36.0543 11.557 34.6983 11.359 32.8803C11.245 32.0283 10.711 31.2303 9.93101 30.7803C9.15101 30.3303 8.19101 30.2703 7.36301 30.6183C5.72501 31.3263 3.79301 30.6963 2.88101 29.1423L1.68101 27.0363C1.56701 26.8383 1.43501 26.6283 1.30301 26.4123C0.48701 25.1043 -1.21699 22.3863 1.42301 20.3343C2.13101 19.7823 2.55101 18.9243 2.55101 18.0303C2.55101 17.1363 2.13101 16.2783 1.42301 15.7323C-0.00499191 14.6703 -0.42499 12.6663 0.46901 11.0943C1.03901 10.1463 2.07701 8.34631 2.69501 7.26631L2.87501 6.95431C3.73301 5.37631 5.73101 4.70431 7.39901 5.45431C8.19101 5.78431 9.15101 5.72431 9.93101 5.27431C10.711 4.82431 11.245 4.02631 11.365 3.13831C11.557 1.34431 13.099 0.00631094 14.935 0.000310943H19.669C21.481 -0.0236891 23.029 1.34431 23.227 3.17431C23.335 4.02631 23.839 4.80031 24.607 5.25631C25.351 5.70631 26.233 5.79631 27.049 5.51431C28.723 4.68631 30.799 5.31631 31.723 6.96031L32.941 9.07831C33.067 9.32431 33.235 9.60031 33.415 9.88831C34.171 11.1063 35.743 13.6383 33.187 15.7023C32.461 16.2663 32.035 17.1243 32.035 18.0183C32.035 18.9123 32.455 19.7703 33.163 20.3163C35.803 22.3803 34.081 25.1283 33.253 26.4483C33.127 26.6463 33.007 26.8443 32.899 27.0303L32.857 27.0963C32.743 27.2703 32.611 27.5223 32.467 27.7923C31.819 29.0223 30.739 31.0623 28.507 30.8943C27.949 30.8523 27.469 30.6903 27.043 30.5523C26.695 30.4383 26.395 30.3423 26.191 30.3543H26.089C24.643 30.3783 23.413 31.4703 23.221 32.9043C23.029 34.6983 21.481 36.0423 19.651 36.0423H14.875V36.0543ZM8.48501 27.4023C9.51101 27.4023 10.531 27.6663 11.431 28.1823C13.015 29.0883 14.101 30.7143 14.347 32.5263C14.383 32.8443 14.617 33.0603 14.899 33.0603H19.675C19.975 33.0483 20.221 32.8503 20.251 32.5683C20.641 29.6463 23.107 27.4383 26.017 27.3843C26.809 27.3363 27.469 27.5523 28.003 27.7323C28.285 27.8283 28.555 27.9183 28.747 27.9303C28.903 27.9303 29.281 27.4383 29.821 26.4183C29.989 26.1003 30.151 25.7943 30.331 25.5183C30.451 25.3143 30.583 25.0983 30.721 24.8763C31.831 23.1063 31.657 22.9623 31.333 22.7103C29.899 21.6003 29.041 19.8543 29.041 18.0363C29.041 16.2183 29.899 14.4723 31.333 13.3623C31.699 13.0683 31.801 12.9843 30.871 11.4903C30.673 11.1663 30.463 10.8363 30.289 10.4943L29.119 8.46031C28.963 8.18431 28.633 8.08831 28.369 8.23231L28.183 8.31631C26.485 8.95231 24.619 8.77831 23.065 7.84231C21.511 6.90631 20.491 5.34031 20.257 3.54031C20.221 3.22231 19.987 3.01231 19.705 3.01231C19.705 3.01231 19.705 3.01231 19.699 3.01231H14.923C14.623 3.01231 14.389 3.22231 14.359 3.50431C14.113 5.35231 13.021 6.97831 11.443 7.88431C9.85901 8.79631 7.90901 8.91631 6.22301 8.21431C5.94101 8.08831 5.64101 8.18431 5.50901 8.42431L5.31101 8.76631C4.68701 9.85231 3.63701 11.6763 3.07301 12.6123C2.94701 12.8403 3.01301 13.1703 3.25301 13.3443C4.71101 14.4723 5.56901 16.2183 5.56901 18.0303C5.56901 19.8423 4.71101 21.5883 3.27701 22.7043C2.94701 22.9623 2.77901 23.0943 3.85901 24.8223C4.01501 25.0743 4.17101 25.3203 4.30301 25.5543L5.49101 27.6483C5.62901 27.8763 5.93501 27.9783 6.19901 27.8643C6.93701 27.5583 7.71701 27.4083 8.49101 27.4083L8.48501 27.4023Z" fill="var(--fill-0, white)"/>
</g>
</svg>
