<svg preserveAspectRatio="none" width="100%" height="100%" overflow="visible" style="display: block;" viewBox="0 0 13.0365 24.7179" fill="none" xmlns="http://www.w3.org/2000/svg">
<path id="Vector" d="M0.000860143 24.21C0.13663 16.3208 0.13663 7.51719 0.000860143 0H4.53798C4.4701 4.33433 4.40221 8.3636 4.43658 13.1379H5.14809C7.28088 13.1379 8.12729 11.7493 8.12729 7.58507V7.28002H12.0887V7.58507C12.0887 11.9194 10.8702 14.2558 8.49937 14.6279L8.29657 14.6614V14.8642C8.43234 18.6228 9.58296 20.4171 11.513 20.4171C12.0208 20.4171 12.5622 20.3157 12.9007 20.2143C12.9007 21.6364 12.9342 22.9907 13.0365 24.3793C12.4943 24.5821 11.7157 24.7179 10.9707 24.7179C7.6521 24.7179 5.92576 22.0429 5.51931 16.185H4.46924C4.46924 18.5893 4.46924 21.9071 4.53712 24.21H0H0.000860143Z" fill="var(--fill-0, #790077)"/>
</svg>
