<svg preserveAspectRatio="none" width="100%" height="100%" overflow="visible" style="display: block;" viewBox="0 0 14.5257 24.717" fill="none" xmlns="http://www.w3.org/2000/svg">
<path id="Vector" d="M0 24.21C0.169283 16.3199 0.169283 7.51719 0 0H4.53712C4.50361 3.14935 4.43572 6.46712 4.33433 9.68349H4.36784C5.35002 7.82138 7.00848 6.77131 8.90496 6.77131H9.00636C12.5278 6.77131 14.5257 10.0899 14.5257 15.9813C14.5257 21.8727 12.5957 24.717 9.00636 24.717H8.97285C6.97497 24.717 5.35002 23.7348 4.23293 21.8727H4.19942C4.2673 22.6512 4.30081 23.4306 4.33519 24.2092H0V24.21ZM6.90708 21.0942C8.93847 21.0942 10.0564 19.1977 10.0564 15.8799V15.5414C10.0564 12.325 8.97285 10.3606 7.14425 10.3606C6.16206 10.3606 5.24777 10.9699 4.50361 12.1213C4.4701 14.1527 4.4701 17.9113 4.4701 19.8413C5.21511 20.7212 5.92576 21.0942 6.90794 21.0942H6.90708Z" fill="var(--fill-0, #790077)"/>
</svg>
